<?xml version="1.0" encoding="UTF-8"?>
<svg id="Layer_1" data-name="Layer 1" xmlns="http://www.w3.org/2000/svg" viewBox="0 0 535.1 592.4">
  <g id="shirt-body-front">
    <path id="shirt-body-front-2" d="M533.86,591.2h-85.1c-.45-7.71-.94-15.41-1.48-23.12-5.51-78.49-15.87-156.98-29.92-235.46v258.58H117.74v-258.58c-15.44,86.19-26.41,172.39-31.41,258.58H1.23c2.83-108.63,6.09-214.75,25.72-323.5,9.68-53.63,21.27-106.35,37.64-157.28,9.26-28.85,79.11-66.11,119.2-78.76,5.92-10.15,11.84-20.31,17.76-30.46h131.99c5.92,10.15,11.85,20.31,17.77,30.46,40.09,12.65,109.93,49.91,119.2,78.76,16.36,50.93,27.96,103.65,37.64,157.28,18.23,101.02,22.34,199.78,25.09,300.38.03.93.06,1.85.08,2.78.19,6.77.36,13.55.54,20.34h0Z" style="fill: #18184a; fill-rule: evenodd; stroke-width: 0px;"/>
  </g>
  <g id="shirt-sleeves-front">
    <g id="shirt-sleeves-front-2">
      <polygon points="517.94 591.34 448.57 101.69 335.74 54.72 336.51 52.87 450.4 100.28 450.48 100.85 519.92 591.06 517.94 591.34" style="fill: #0097c9; stroke-width: 0px;"/>
      <polygon points="17.13 591.34 15.15 591.06 84.67 100.28 198.56 52.87 199.32 54.72 86.49 101.69 17.13 591.34" style="fill: #0097c9; stroke-width: 0px;"/>
    </g>
  </g>
  <g id="shirt-cuffs-front">
    <g id="shirt-cuffs-front-2">
      <path d="M533.86,591.2h-85.1c-.45-7.71-.94-15.41-1.48-23.12h85.97c.03.93.05,1.85.07,2.78.19,6.77.36,13.55.54,20.34h0Z" style="fill: #0097c9; stroke: #969696; stroke-miterlimit: 22.93;"/>
      <path d="M1.23,591.2h85.1c.45-7.71.94-15.41,1.48-23.12H1.84c-.03.93-.05,1.85-.07,2.78-.19,6.77-.36,13.55-.54,20.34h0Z" style="fill: #0097c9; stroke: #969696; stroke-miterlimit: 22.93;"/>
    </g>
  </g>
  <g id="shirt-collar-front">
    <g id="shirt-collar-front-2">
      <path d="M310.82,31.66h-89.2c-13.38-7.29-22.38-16.89-21.39-30.46h131.98c.99,13.57-8.01,23.17-21.39,30.46h0Z" style="fill: #18184a; stroke-width: 0px;"/>
      <path d="M351.3,31.66c-5.92-10.15-11.84-20.3-17.77-30.46,1.69,23.19-25.78,34.77-54.37,43.1-3.76,1.06-5.79,3.67-5.56,11.34v21.61c5.5,0,3.94.28,5.5,0,30.64-5.58,61.29-16.49,72.2-45.6h0Z" style="fill: #18184a; stroke-width: 0px;"/>
      <path d="M183.78,31.66c5.92-10.15,11.84-20.3,17.77-30.46-1.69,23.19,25.78,34.77,54.37,43.1,3.76,1.06,5.79,3.67,5.56,11.34v21.61c-5.5,0-3.94.28-5.5,0-30.65-5.58-61.29-16.49-72.2-45.6h0Z" style="fill: #18184a; fill-rule: evenodd; stroke-width: 0px;"/>
    </g>
  </g>
  <g id="shirt-buttons-front">
    <g id="shirt-buttons-front-2">
      <path d="M255.98,77.26c8.76,1.84,16.46,1.84,23.12,0v98.08h-23.12v-98.08Z" style="fill: #18184a; stroke: #969696; stroke-miterlimit: 22.93; stroke-width: 1.2px;"/>
      <circle cx="267.54" cy="99.42" r="4.25" style="fill: #18184a; stroke: #969696; stroke-miterlimit: 22.93; stroke-width: 1.2px;"/>
      <circle cx="267.54" cy="126.3" r="4.25" style="fill: #18184a; stroke: #969696; stroke-miterlimit: 22.93; stroke-width: 1.2px;"/>
      <circle cx="267.54" cy="153.17" r="4.25" style="fill: #18184a; stroke: #969696; stroke-miterlimit: 22.93; stroke-width: 1.2px;"/>
    </g>
  </g>
  <g id="outer-front">
    <g id="outer-2">
      <path d="M417.35,332.62c-7.94-87.57,5.21-168.69,37.2-244.02" style="fill: none; stroke: #969696; stroke-miterlimit: 22.93; stroke-width: 1.2px;"/>
      <path d="M117.73,332.62c7.94-87.57-5.21-168.69-37.2-244.02" style="fill: none; stroke: #969696; stroke-miterlimit: 22.93; stroke-width: 1.2px;"/>
      <line x1="223.49" y1="31.66" x2="310.92" y2="31.66" style="fill: none; stroke: #969696; stroke-linejoin: bevel; stroke-width: 1.2px;"/>
      <path d="M333.54,1.2c5.92,10.15,11.85,20.31,17.77,30.46,40.09,12.65,109.93,49.91,119.2,78.76,16.36,50.93,27.96,103.65,37.64,157.28,18.23,101.02,22.34,199.78,25.09,300.38.03.93.06,1.85.08,2.78.19,6.77.36,13.55.54,20.34h-85.1c-.45-7.71-.94-15.41-1.48-23.12-5.51-78.49-15.87-156.98-29.92-235.46v258.58H117.74v-258.58c-15.44,86.19-26.41,172.39-31.41,258.58H1.23c2.83-108.63,6.09-214.75,25.72-323.5,9.68-53.63,21.27-106.35,37.64-157.28,9.26-28.85,79.11-66.11,119.2-78.76,5.92-10.15,11.84-20.31,17.76-30.46h131.99M334.22,0h-133.36l-.35.59-8.94,15.34-8.58,14.72c-21.46,6.83-48.61,19.56-70.99,33.29-19.17,11.77-43.16,29.32-48.55,46.11-14.41,44.84-26.38,94.87-37.68,157.43C5.54,379.53,2.62,491.96.03,591.16l-.03,1.23h87.46l.07-1.13c4.57-78.7,14.07-158.98,29.02-244.99v246.12h302.01v-246.11c13.49,77.67,22.51,150.39,27.53,221.88.52,7.42,1.02,15.19,1.48,23.11l.07,1.13h87.46l-.03-1.23-.17-6.61c-.12-4.58-.24-9.16-.37-13.73-.02-.9-.05-1.79-.08-2.7v-.08c-2.74-100.25-6.73-198.67-25.11-300.55-11.28-62.5-23.25-112.53-37.68-157.43-5.39-16.79-29.38-34.34-48.56-46.11-22.37-13.73-49.52-26.46-70.98-33.29l-8.56-14.68-8.97-15.38-.35-.59h0l-.02-.02h0Z" style="fill: #969696; stroke-width: 0px;"/>
      <line x1="417.35" y1="579.64" x2="117.73" y2="579.64" style="fill: none; stroke: #969696; stroke-miterlimit: 22.93; stroke-width: 1.2px;"/>
      <path d="M201.55,1.2c-1.69,23.19,25.78,34.77,54.37,43.1,3.76,1.06,5.79,3.67,5.56,11.34v21.61c-3.67,0-4.19.13-4.6.13-.2,0-.38-.03-.9-.13-30.65-5.58-61.29-16.49-72.2-45.6,5.92-10.15,11.84-20.3,17.77-30.46M200.52.6l-11.6,19.89-6.16,10.56-.09,1.02c5.14,13.71,14.71,24.26,29.24,32.25,11.36,6.24,25.3,10.72,43.86,14.11.57.1.8.15,1.11.15.13,0,.26,0,.46-.02.47-.03,1.43-.1,4.14-.1l1.2-1.2v-21.61c.22-7.51-1.64-11.14-6.44-12.49-27.38-7.98-55.15-19.19-53.5-41.87l-2.23-.69h.01Z" style="fill: #969696; stroke-width: 0px;"/>
      <path d="M333.54,1.2c5.92,10.15,11.84,20.31,17.77,30.46-10.91,29.11-41.56,40.02-72.2,45.6-.52.09-.69.13-.9.13-.41,0-.94-.13-4.6-.13v-21.61c-.23-7.67,1.8-10.28,5.56-11.34,28.59-8.33,56.06-19.92,54.37-43.1M334.57.6l-2.23.69c1.65,22.67-26.12,33.89-53.51,41.87-4.78,1.35-6.65,4.98-6.42,12.52v21.58l1.2,1.2c2.71,0,3.68.07,4.14.1.2,0,.34.02.46.02.31,0,.55-.04,1.11-.15,18.57-3.38,32.5-7.87,43.86-14.11,14.54-7.99,24.1-18.54,29.24-32.25l-.09-1.02-6.92-11.87-10.84-18.59h0Z" style="fill: #969696; stroke-width: 0px;"/>
    </g>
  </g>
  <g id="pocket-left">
    <path d="M329,191.51h61.56v43.05c0,6-4.87,10.88-10.88,10.88h-39.81c-6,0-10.88-4.87-10.88-10.88v-43.05h0Z" style="fill: #0097c9; stroke-width: 0px;"/>
    <rect x="329" y="191.51" width="61.56" height="7.08" style="fill: none; stroke: #000; stroke-miterlimit: 22.93; stroke-width: .87px;"/>
  </g>
  <g id="pocket-right">
    <path d="M155.89,191.51h61.56v43.05c0,6-4.87,10.88-10.88,10.88h-39.81c-6,0-10.88-4.87-10.88-10.88v-43.05h0Z" style="fill: #0097c9; stroke-width: 0px;"/>
    <rect x="155.89" y="191.51" width="61.56" height="7.08" style="fill: none; stroke: #000; stroke-miterlimit: 22.93; stroke-width: .87px;"/>
  </g>
</svg>