<?xml version="1.0" encoding="UTF-8"?>
<svg id="Layer_1" data-name="Layer 1" xmlns="http://www.w3.org/2000/svg" viewBox="0 0 800 800">
  <defs>
    <style>
      .cls-1, .cls-2, .cls-3, .cls-4, .cls-5 {
        stroke: #969696;
      }

      .cls-1, .cls-2, .cls-3, .cls-5 {
        stroke-miterlimit: 22.93;
      }

      .cls-1, .cls-2, .cls-4 {
        stroke-width: 1.2px;
      }

      .cls-1, .cls-4 {
        fill: none;
      }

      .cls-2, .cls-6, .cls-7 {
        fill: #18184a;
      }

      .cls-3, .cls-5, .cls-8 {
        fill: #0097c9;
      }

      .cls-4 {
        stroke-linejoin: bevel;
      }

      .cls-9 {
        fill: #969696;
      }

      .cls-9, .cls-6, .cls-7, .cls-8 {
        stroke-width: 0px;
      }

      .cls-5 {
        stroke-width: .78px;
      }

      .cls-7 {
        fill-rule: evenodd;
      }
    </style>
  </defs>
  <g id="shirt-body-front">
    <path id="shirt-body-front-2" class="cls-7" d="M661.6,694.93h-85.1c-.45-7.71-.94-15.41-1.48-23.12-5.51-78.49-15.87-156.98-29.92-235.46v258.58H245.48v-258.58c-15.44,86.19-26.41,172.39-31.41,258.58h-85.1c2.83-108.63,6.09-214.75,25.72-323.5,9.68-53.63,21.27-106.35,37.64-157.28,9.26-28.85,79.11-66.11,119.2-78.76,5.92-10.15,11.84-20.31,17.76-30.46h131.99c5.92,10.15,11.85,20.31,17.77,30.46,40.09,12.65,109.93,49.91,119.2,78.76,16.36,50.93,27.96,103.65,37.64,157.28,18.23,101.02,22.34,199.78,25.09,300.38.03.93.06,1.85.08,2.78.19,6.77.36,13.55.54,20.34h0Z"/>
  </g>
  <g id="shirt-sleeves-front">
    <g id="shirt-sleeves-front-2">
      <polygon class="cls-8" points="645.68 695.07 576.31 205.42 463.48 158.45 464.25 156.6 578.14 204.01 578.22 204.58 647.66 694.79 645.68 695.07"/>
      <polygon class="cls-8" points="144.87 695.07 142.89 694.79 212.41 204.01 326.3 156.6 327.06 158.45 214.23 205.42 144.87 695.07"/>
    </g>
  </g>
  <g id="shirt-cuffs-front">
    <g id="shirt-cuffs-front-2">
      <path class="cls-3" d="M661.6,694.93h-85.1c-.45-7.71-.94-15.41-1.48-23.12h85.97c.03.93.05,1.85.07,2.78.19,6.77.36,13.55.54,20.34h0Z"/>
      <path class="cls-3" d="M128.97,694.93h85.1c.45-7.71.94-15.41,1.48-23.12h-85.97c-.03.93-.05,1.85-.07,2.78-.19,6.77-.36,13.55-.54,20.34h0Z"/>
    </g>
  </g>
  <g id="shirt-collar-front">
    <g id="shirt-collar-front-2">
      <path class="cls-6" d="M438.56,135.39h-89.2c-13.38-7.29-22.38-16.89-21.39-30.46h131.98c.99,13.57-8.01,23.17-21.39,30.46h0Z"/>
      <path class="cls-6" d="M479.04,135.39c-5.92-10.15-11.84-20.3-17.77-30.46,1.69,23.19-25.78,34.77-54.37,43.1-3.76,1.06-5.79,3.67-5.56,11.34v21.61c5.5,0,3.94.28,5.5,0,30.64-5.58,61.29-16.49,72.2-45.6h0Z"/>
      <path class="cls-7" d="M311.52,135.39c5.92-10.15,11.84-20.3,17.77-30.46-1.69,23.19,25.78,34.77,54.37,43.1,3.76,1.06,5.79,3.67,5.56,11.34v21.61c-5.5,0-3.94.28-5.5,0-30.65-5.58-61.29-16.49-72.2-45.6h0Z"/>
    </g>
  </g>
  <g id="shirt-buttons-front">
    <g id="shirt-buttons-front-2">
      <path class="cls-2" d="M383.72,180.99c8.76,1.84,16.46,1.84,23.12,0v98.08h-23.12v-98.08Z"/>
      <circle class="cls-2" cx="395.28" cy="203.15" r="4.25"/>
      <circle class="cls-2" cx="395.28" cy="230.03" r="4.25"/>
      <circle class="cls-2" cx="395.28" cy="256.9" r="4.25"/>
    </g>
  </g>
  <g id="outer-front">
    <g id="outer-2">
      <path class="cls-1" d="M545.09,436.35c-7.94-87.57,5.21-168.69,37.2-244.02"/>
      <path class="cls-1" d="M245.47,436.35c7.94-87.57-5.21-168.69-37.2-244.02"/>
      <line class="cls-4" x1="351.23" y1="135.39" x2="438.66" y2="135.39"/>
      <path class="cls-9" d="M461.28,104.93c5.92,10.15,11.85,20.31,17.77,30.46,40.09,12.65,109.93,49.91,119.2,78.76,16.36,50.93,27.96,103.65,37.64,157.28,18.23,101.02,22.34,199.78,25.09,300.38.03.93.06,1.85.08,2.78.19,6.77.36,13.55.54,20.34h-85.1c-.45-7.71-.94-15.41-1.48-23.12-5.51-78.49-15.87-156.98-29.92-235.46v258.58H245.48v-258.58c-15.44,86.19-26.41,172.39-31.41,258.58h-85.1c2.83-108.63,6.09-214.75,25.72-323.5,9.68-53.63,21.27-106.35,37.64-157.28,9.26-28.85,79.11-66.11,119.2-78.76,5.92-10.15,11.84-20.31,17.76-30.46h131.99M461.96,103.73h-133.36l-.35.59-8.94,15.34-8.58,14.72c-21.46,6.83-48.61,19.56-70.99,33.29-19.17,11.77-43.16,29.32-48.55,46.11-14.41,44.84-26.38,94.87-37.68,157.43-20.23,112.05-23.15,224.48-25.74,323.68l-.03,1.23h87.46l.07-1.13c4.57-78.7,14.07-158.98,29.02-244.99v246.12h302.01v-246.11c13.49,77.67,22.51,150.39,27.53,221.88.52,7.42,1.02,15.19,1.48,23.11l.07,1.13h87.46l-.03-1.23-.17-6.61c-.12-4.58-.24-9.16-.37-13.73-.02-.9-.05-1.79-.08-2.7v-.08c-2.74-100.25-6.73-198.67-25.11-300.55-11.28-62.5-23.25-112.53-37.68-157.43-5.39-16.79-29.38-34.34-48.56-46.11-22.37-13.73-49.52-26.46-70.98-33.29l-8.56-14.68-8.97-15.38-.35-.59h0l-.02-.02Z"/>
      <line class="cls-1" x1="545.09" y1="683.37" x2="245.47" y2="683.37"/>
      <path class="cls-9" d="M329.29,104.93c-1.69,23.19,25.78,34.77,54.37,43.1,3.76,1.06,5.79,3.67,5.56,11.34v21.61c-3.67,0-4.19.13-4.6.13-.2,0-.38-.03-.9-.13-30.65-5.58-61.29-16.49-72.2-45.6,5.92-10.15,11.84-20.3,17.77-30.46M328.26,104.33l-11.6,19.89-6.16,10.56-.09,1.02c5.14,13.71,14.71,24.26,29.24,32.25,11.36,6.24,25.3,10.72,43.86,14.11.57.1.8.15,1.11.15.13,0,.26,0,.46-.02.47-.03,1.43-.1,4.14-.1l1.2-1.2v-21.61c.22-7.51-1.64-11.14-6.44-12.49-27.38-7.98-55.15-19.19-53.5-41.87l-2.23-.69h.01Z"/>
      <path class="cls-9" d="M461.28,104.93c5.92,10.15,11.84,20.31,17.77,30.46-10.91,29.11-41.56,40.02-72.2,45.6-.52.09-.69.13-.9.13-.41,0-.94-.13-4.6-.13v-21.61c-.23-7.67,1.8-10.28,5.56-11.34,28.59-8.33,56.06-19.92,54.37-43.1M462.31,104.33l-2.23.69c1.65,22.67-26.12,33.89-53.51,41.87-4.78,1.35-6.65,4.98-6.42,12.52v21.58l1.2,1.2c2.71,0,3.68.07,4.14.1.2,0,.34.02.46.02.31,0,.55-.04,1.11-.15,18.57-3.38,32.5-7.87,43.86-14.11,14.54-7.99,24.1-18.54,29.24-32.25l-.09-1.02-6.92-11.87-10.84-18.59h0Z"/>
    </g>
  </g>
  <path id="test-front" class="cls-5" d="M302.05,525h51.68c10,0,18.12,8.12,18.12,18.12v63.88h-87.93v-63.88c0-10,8.12-18.12,18.12-18.12Z"/>
</svg>